<svg width="308" height="308" viewBox="0 0 308 308" fill="none" xmlns="http://www.w3.org/2000/svg">
<path d="M140 8.0829C148.663 3.08118 159.337 3.08119 168 8.0829L273.368 68.9171C282.031 73.9188 287.368 83.1624 287.368 93.1658V214.834C287.368 224.838 282.031 234.081 273.368 239.083L168 299.917C159.337 304.919 148.663 304.919 140 299.917L34.6321 239.083C25.9689 234.081 20.6321 224.838 20.6321 214.834V93.1658C20.6321 83.1624 25.9689 73.9188 34.6321 68.9171L140 8.0829Z" fill="#705FAC"/>
<g filter="url(#filter0_i_421_200)">
<path fill-rule="evenodd" clip-rule="evenodd" d="M20.6321 144.166V214.835C20.6321 224.838 25.9688 234.082 34.6321 239.083L140 299.918C148.663 304.919 159.337 304.919 168 299.918L273.368 239.083C282.031 234.082 287.368 224.838 287.368 214.835V144.166C287.368 134.162 282.031 124.919 273.368 119.917L168 59.0828C159.337 54.0811 148.663 54.0811 140 59.0828L34.6321 119.917C25.9689 124.919 20.6321 134.162 20.6321 144.166Z" fill="#FF8074"/>
<path fill-rule="evenodd" clip-rule="evenodd" d="M20.6321 144.166V214.835C20.6321 224.838 25.9688 234.082 34.6321 239.083L140 299.918C148.663 304.919 159.337 304.919 168 299.918L273.368 239.083C282.031 234.082 287.368 224.838 287.368 214.835V144.166C287.368 134.162 282.031 124.919 273.368 119.917L168 59.0828C159.337 54.0811 148.663 54.0811 140 59.0828L34.6321 119.917C25.9689 124.919 20.6321 134.162 20.6321 144.166Z" fill="url(#paint0_linear_421_200)"/>
</g>
<g filter="url(#filter1_i_421_200)">
<path fill-rule="evenodd" clip-rule="evenodd" d="M168 114.083C159.337 109.081 148.663 109.081 140 114.083L80.5314 148.417C71.8682 153.419 66.5314 162.662 66.5314 172.666V241.334C66.5314 251.338 71.8682 260.581 80.5314 265.583L140 299.917C148.663 304.919 159.337 304.919 168 299.917L227.469 265.583C236.132 260.581 241.469 251.338 241.469 241.334V172.666C241.469 162.662 236.132 153.419 227.469 148.417L168 114.083Z" fill="#F7EFBD"/>
<path fill-rule="evenodd" clip-rule="evenodd" d="M168 114.083C159.337 109.081 148.663 109.081 140 114.083L80.5314 148.417C71.8682 153.419 66.5314 162.662 66.5314 172.666V241.334C66.5314 251.338 71.8682 260.581 80.5314 265.583L140 299.917C148.663 304.919 159.337 304.919 168 299.917L227.469 265.583C236.132 260.581 241.469 251.338 241.469 241.334V172.666C241.469 162.662 236.132 153.419 227.469 148.417L168 114.083Z" fill="url(#paint1_linear_421_200)"/>
</g>
<path d="M154.523 168.72C135.283 168.72 124.987 181.616 124.987 205.64C124.987 229.664 135.283 242.56 154.523 242.56C173.763 242.56 184.059 229.664 184.059 205.64C184.059 181.616 173.763 168.72 154.523 168.72ZM154.523 182.24C156.811 182.24 158.787 182.76 160.451 183.696L143.811 222.28C141.939 218.536 141.003 212.92 141.003 205.64C141.003 189.728 145.371 182.24 154.523 182.24ZM154.523 229.04C152.131 229.04 150.051 228.52 148.283 227.48L165.027 188.584C167.107 192.432 168.043 198.048 168.043 205.64C168.043 221.552 163.675 229.04 154.523 229.04Z" fill="#443252"/>
<defs>
<filter id="filter0_i_421_200" x="20.6321" y="55.3315" width="266.736" height="250.337" filterUnits="userSpaceOnUse" color-interpolation-filters="sRGB">
<feFlood flood-opacity="0" result="BackgroundImageFix"/>
<feBlend mode="normal" in="SourceGraphic" in2="BackgroundImageFix" result="shape"/>
<feColorMatrix in="SourceAlpha" type="matrix" values="0 0 0 0 0 0 0 0 0 0 0 0 0 0 0 0 0 0 127 0" result="hardAlpha"/>
<feOffset dy="2"/>
<feGaussianBlur stdDeviation="1"/>
<feComposite in2="hardAlpha" operator="arithmetic" k2="-1" k3="1"/>
<feColorMatrix type="matrix" values="0 0 0 0 1 0 0 0 0 1 0 0 0 0 1 0 0 0 0.25 0"/>
<feBlend mode="normal" in2="shape" result="effect1_innerShadow_421_200"/>
</filter>
<filter id="filter1_i_421_200" x="66.5314" y="110.332" width="174.937" height="195.337" filterUnits="userSpaceOnUse" color-interpolation-filters="sRGB">
<feFlood flood-opacity="0" result="BackgroundImageFix"/>
<feBlend mode="normal" in="SourceGraphic" in2="BackgroundImageFix" result="shape"/>
<feColorMatrix in="SourceAlpha" type="matrix" values="0 0 0 0 0 0 0 0 0 0 0 0 0 0 0 0 0 0 127 0" result="hardAlpha"/>
<feOffset dy="2"/>
<feGaussianBlur stdDeviation="1"/>
<feComposite in2="hardAlpha" operator="arithmetic" k2="-1" k3="1"/>
<feColorMatrix type="matrix" values="0 0 0 0 1 0 0 0 0 1 0 0 0 0 1 0 0 0 0.25 0"/>
<feBlend mode="normal" in2="shape" result="effect1_innerShadow_421_200"/>
</filter>
<linearGradient id="paint0_linear_421_200" x1="154" y1="55.3315" x2="154" y2="354.189" gradientUnits="userSpaceOnUse">
<stop offset="0.216954" stop-color="#FF8DB4" stop-opacity="0"/>
<stop offset="1" stop-color="#FF1061"/>
</linearGradient>
<linearGradient id="paint1_linear_421_200" x1="154" y1="110.332" x2="154" y2="343" gradientUnits="userSpaceOnUse">
<stop offset="0.216954" stop-color="#FF8074" stop-opacity="0"/>
<stop offset="1" stop-color="#FF8074"/>
</linearGradient>
</defs>
</svg>
